External Loads File
version=1
nRows=70
nColumns=13
Range=5.000000e-03-10 seconds
endheader
time 	forceRightX 	forceRightY 	forceRightZ 	pointRightX 	pointRightY 	pointRightZ 	forceLeftX 	forceLeftY 	forceLeftZ 	pointLeftX 	pointLeftY 	pointLeftZ 		
7.505000 -21.754553 370.720772 -0.000000 0.296665 0.166188 -0.112081 41.268750 152.272455 -0.000000 0.215842 0.500222 -0.360131
7.510000 -18.352802 365.717126 -0.000000 0.297713 0.166500 -0.111979 44.482196 156.381110 -0.000000 0.214411 0.499830 -0.360001
7.515000 -15.036433 361.702093 -0.000000 0.298572 0.166765 -0.111883 47.534944 160.739976 -0.000000 0.213046 0.499386 -0.359851
7.520000 -11.926348 358.759425 -0.000000 0.299413 0.167005 -0.111821 50.375009 165.368626 -0.000000 0.211802 0.499097 -0.359821
7.525000 -8.940349 356.919005 -0.000000 0.300082 0.167142 -0.111755 53.059063 170.242791 -0.000000 0.210681 0.498619 -0.359812
7.530000 -6.305816 356.145520 -0.000000 0.300730 0.167379 -0.111629 55.513242 175.333122 -0.000000 0.209576 0.498234 -0.359778
7.535000 -3.848112 356.369025 -0.000000 0.301330 0.167466 -0.111525 57.866661 180.460023 -0.000000 0.208589 0.497880 -0.359680
7.540000 -1.766351 357.479827 -0.000000 0.301899 0.167594 -0.111452 60.066273 185.396264 -0.000000 0.207607 0.497618 -0.359767
7.545000 -0.106714 359.356602 -0.000000 0.302507 0.167816 -0.111380 62.119746 189.821247 -0.000000 0.206759 0.497401 -0.359581
7.550000 0.971411 361.882344 -0.000000 0.303121 0.168035 -0.111363 63.953674 193.434878 -0.000000 0.205945 0.497086 -0.359588
7.555000 1.326490 364.957541 -0.000000 0.303819 0.168287 -0.111294 65.485022 195.992373 -0.000000 0.205143 0.496805 -0.359536
7.560000 1.014241 368.498825 -0.000000 0.304507 0.168517 -0.111247 66.736714 197.288481 -0.000000 0.204331 0.496540 -0.359502
7.565000 0.023114 372.436902 -0.000000 0.305272 0.168748 -0.111212 67.708504 197.221331 -0.000000 0.203609 0.496247 -0.359511
7.570000 -1.711713 376.711034 -0.000000 0.306072 0.169097 -0.111189 68.379970 195.826108 -0.000000 0.202880 0.495985 -0.359401
7.575000 -4.122261 381.256880 -0.000000 0.306920 0.169389 -0.111244 68.792756 193.264419 -0.000000 0.202158 0.495654 -0.359388
7.580000 -6.969246 386.000864 -0.000000 0.307733 0.169740 -0.111234 69.052617 189.798151 -0.000000 0.201511 0.495338 -0.359364
7.585000 -10.332675 390.854898 -0.000000 0.308629 0.170125 -0.111195 69.091748 185.813627 -0.000000 0.200866 0.494989 -0.359293
7.590000 -13.766885 395.740939 -0.000000 0.309412 0.170490 -0.111235 69.096905 181.607134 -0.000000 0.200259 0.494658 -0.359352
7.595000 -17.205445 400.569035 -0.000000 0.310182 0.170797 -0.111249 69.063186 177.522314 -0.000000 0.199687 0.494339 -0.359267
7.600000 -20.454742 405.223290 -0.000000 0.310989 0.171152 -0.111294 69.033161 173.844970 -0.000000 0.199223 0.494175 -0.359276
7.605000 -23.318242 409.557411 -0.000000 0.311583 0.171435 -0.111390 69.046132 170.788209 -0.000000 0.198735 0.493889 -0.359280
7.610000 -25.810465 413.420196 -0.000000 0.312144 0.171705 -0.111445 69.068167 168.493153 -0.000000 0.198390 0.493293 -0.359289
7.615000 -27.393795 416.739317 -0.000000 0.312566 0.171978 -0.111466 69.307823 166.900748 -0.000000 0.198085 0.493643 -0.359380
7.620000 -28.425040 419.436730 -0.000000 0.312887 0.172156 -0.111480 69.616599 166.023843 -0.000000 0.197881 0.493857 -0.359378
7.625000 -29.177002 421.475591 -0.000000 0.313061 0.172309 -0.111525 69.888102 165.813027 -0.000000 0.197742 0.493399 -0.359370
7.630000 -29.279711 422.894909 -0.000000 0.313262 0.172360 -0.111708 70.269586 166.084411 -0.000000 0.197676 0.493715 -0.359404
7.635000 -28.915302 423.719462 -0.000000 0.313224 0.172365 -0.111753 70.689909 166.737565 -0.000000 0.197720 0.493689 -0.359459
7.640000 -28.388526 423.984423 -0.000000 0.313096 0.172331 -0.111787 71.030804 167.700812 -0.000000 0.197814 0.493328 -0.359516
7.645000 -27.271693 423.790537 -0.000000 0.312754 0.172217 -0.111697 71.470718 168.794250 -0.000000 0.197941 0.493462 -0.359571
7.650000 -26.170267 423.170668 -0.000000 0.312488 0.172098 -0.111703 71.785256 170.028014 -0.000000 0.198185 0.493402 -0.359607
7.655000 -24.991462 422.188966 -0.000000 0.312205 0.171950 -0.111701 72.022967 171.303861 -0.000000 0.198406 0.493551 -0.359638
7.660000 -23.709729 420.899229 -0.000000 0.311867 0.171777 -0.111706 72.203058 172.520050 -0.000000 0.198700 0.493660 -0.359677
7.665000 -22.508367 419.359927 -0.000000 0.311556 0.171613 -0.111671 72.261687 173.586254 -0.000000 0.199012 0.493771 -0.359672
7.670000 -21.450413 417.652106 -0.000000 0.311232 0.171457 -0.111649 72.185199 174.388542 -0.000000 0.199277 0.493905 -0.359686
7.675000 -20.579986 415.853338 -0.000000 0.310909 0.171329 -0.111634 71.963932 174.838459 -0.000000 0.199550 0.493957 -0.359749
7.680000 -19.836526 414.029279 -0.000000 0.310605 0.171171 -0.111612 71.628339 174.880610 -0.000000 0.199815 0.494180 -0.359777
7.685000 -19.346316 412.218161 -0.000000 0.310362 0.171025 -0.111575 71.132276 174.543513 -0.000000 0.200120 0.494317 -0.359685
7.690000 -19.122817 410.453998 -0.000000 0.310138 0.170895 -0.111537 70.483588 173.867121 -0.000000 0.200381 0.494459 -0.359662
7.695000 -19.142906 408.769543 -0.000000 0.309940 0.170773 -0.111519 69.710013 172.899194 -0.000000 0.200612 0.494623 -0.359627
7.700000 -19.403703 407.186364 -0.000000 0.309795 0.170699 -0.111480 68.828475 171.700278 -0.000000 0.200841 0.494748 -0.359621
7.705000 -19.833855 405.712677 -0.000000 0.309685 0.170635 -0.111442 67.883042 170.324529 -0.000000 0.201046 0.494863 -0.359599
7.710000 -20.347306 404.342766 -0.000000 0.309597 0.170573 -0.111418 66.928478 168.826461 -0.000000 0.201237 0.494967 -0.359540
7.715000 -20.920703 403.056299 -0.000000 0.309540 0.170539 -0.111394 65.999483 167.276480 -0.000000 0.201410 0.495063 -0.359493
7.720000 -21.434658 401.828037 -0.000000 0.309505 0.170506 -0.111383 65.171977 165.735382 -0.000000 0.201607 0.495172 -0.359440
7.725000 -21.930471 400.601451 -0.000000 0.309470 0.170490 -0.111381 64.447740 164.288915 -0.000000 0.201738 0.495300 -0.359342
7.730000 -22.261080 399.296246 -0.000000 0.309416 0.170466 -0.111383 63.890046 162.981691 -0.000000 0.201866 0.495448 -0.359309
7.735000 -22.442578 397.813350 -0.000000 0.309351 0.170458 -0.111386 63.476949 161.865921 -0.000000 0.201980 0.495535 -0.359291
7.740000 -22.381632 396.092186 -0.000000 0.309251 0.170424 -0.111392 63.220670 160.950098 -0.000000 0.202079 0.495618 -0.359275
7.745000 -22.095574 394.121533 -0.000000 0.309151 0.170397 -0.111384 63.091750 160.239369 -0.000000 0.202184 0.495682 -0.359244
7.750000 -21.559869 391.938771 -0.000000 0.309020 0.170377 -0.111401 63.090898 159.726131 -0.000000 0.202285 0.495737 -0.359233
7.755000 -20.804248 389.604571 -0.000000 0.308863 0.170337 -0.111426 63.207570 159.407569 -0.000000 0.202363 0.495794 -0.359235
7.760000 -19.794779 387.204784 -0.000000 0.308663 0.170292 -0.111445 63.459034 159.257495 -0.000000 0.202471 0.495855 -0.359264
7.765000 -18.698743 384.844381 -0.000000 0.308454 0.170208 -0.111458 63.774524 159.270073 -0.000000 0.202559 0.495862 -0.359289
7.770000 -17.578669 382.664511 -0.000000 0.308226 0.170133 -0.111501 64.120777 159.421243 -0.000000 0.202640 0.495838 -0.359351
7.775000 -16.495918 380.809592 -0.000000 0.308013 0.170058 -0.111522 64.466371 159.692489 -0.000000 0.202731 0.495878 -0.359347
7.780000 -15.511806 379.381982 -0.000000 0.307794 0.169987 -0.111563 64.784109 160.068192 -0.000000 0.202835 0.495915 -0.359321
7.785000 -14.624969 378.424960 -0.000000 0.307565 0.169915 -0.111594 65.074460 160.521656 -0.000000 0.202965 0.496012 -0.359259
7.790000 -13.930883 377.928733 -0.000000 0.307332 0.169811 -0.111622 65.295830 161.043950 -0.000000 0.203074 0.496087 -0.359247
7.795000 -13.456048 377.847666 -0.000000 0.307106 0.169730 -0.111624 65.434661 161.609166 -0.000000 0.203171 0.496150 -0.359244
7.800000 -13.145612 378.111194 -0.000000 0.306885 0.169624 -0.111623 65.511863 162.161987 -0.000000 0.203273 0.496222 -0.359226
7.805000 -13.008765 378.648800 -0.000000 0.306677 0.169539 -0.111628 65.521637 162.648211 -0.000000 0.203390 0.496252 -0.359193
7.810000 -13.075758 379.419937 -0.000000 0.306493 0.169481 -0.111624 65.450608 163.019749 -0.000000 0.203470 0.496305 -0.359153
7.815000 -13.292781 380.419396 -0.000000 0.306333 0.169414 -0.111611 65.320432 163.218387 -0.000000 0.203549 0.496372 -0.359124
7.820000 -13.668292 381.652257 -0.000000 0.306186 0.169366 -0.111597 65.119028 163.200457 -0.000000 0.203614 0.496428 -0.359152
7.825000 -14.170647 383.109737 -0.000000 0.306070 0.169299 -0.111588 64.844653 162.932726 -0.000000 0.203689 0.496468 -0.359114
7.830000 -14.848188 384.742948 -0.000000 0.305990 0.169266 -0.111581 64.462872 162.433945 -0.000000 0.203720 0.496516 -0.359083
7.835000 -15.594805 386.468293 -0.000000 0.305915 0.169221 -0.111586 64.014500 161.742264 -0.000000 0.203737 0.496572 -0.359008
7.840000 -16.366259 388.177881 -0.000000 0.305851 0.169171 -0.111575 63.527082 160.940398 -0.000000 0.203770 0.496619 -0.358984
7.845000 -17.169409 389.764890 -0.000000 0.305814 0.169126 -0.111586 63.016786 160.132876 -0.000000 0.203807 0.496656 -0.358998
7.850000 -18.009137 391.137047 -0.000000 0.305789 0.169108 -0.111563 62.503575 159.408145 -0.000000 0.203803 0.496692 -0.358995
